<svg width="64" height="78" viewBox="0 0 64 78" fill="none" xmlns="http://www.w3.org/2000/svg">
<rect x="0.5" y="13.22" width="62.5996" height="62.5996" rx="2.5" fill="#CB9714" stroke="white"/>
<path d="M39.678 59.206C39.678 59.7 39.509 60.129 39.171 60.493C38.833 60.831 38.417 61 37.923 61H36.831C36.337 61 35.921 60.831 35.583 60.493C35.245 60.129 35.076 59.7 35.076 59.206V45.985C35.076 45.829 35.011 45.699 34.881 45.595C34.777 45.491 34.66 45.439 34.53 45.439H30.747C30.617 45.439 30.487 45.491 30.357 45.595C30.253 45.699 30.201 45.829 30.201 45.985V59.206C30.201 59.7 30.032 60.129 29.694 60.493C29.356 60.831 28.94 61 28.446 61H27.354C26.86 61 26.431 60.831 26.067 60.493C25.729 60.129 25.56 59.7 25.56 59.206V45.166C25.56 44.36 25.755 43.632 26.145 42.982C26.561 42.306 27.094 41.773 27.744 41.383C28.394 40.993 29.122 40.798 29.928 40.798H35.349C36.155 40.798 36.883 40.993 37.533 41.383C38.183 41.773 38.703 42.306 39.093 42.982C39.483 43.632 39.678 44.36 39.678 45.166V59.206Z" fill="#161A42"/>
<path d="M31.3681 26.624C31.3681 27.616 31.0161 28.48 30.3121 29.216C29.6081 29.92 28.7601 30.272 27.7681 30.272C26.7761 30.272 25.9281 29.92 25.2241 29.216C24.5201 28.48 24.1681 27.616 24.1681 26.624C24.1681 25.664 24.5201 24.832 25.2241 24.128C25.9281 23.392 26.7761 23.024 27.7681 23.024C28.7601 23.024 29.6081 23.392 30.3121 24.128C31.0161 24.832 31.3681 25.664 31.3681 26.624ZM30.6001 58.304C30.6001 59.264 30.3601 60.144 29.8801 60.944C29.4001 61.776 28.7601 62.432 27.9601 62.912C27.1601 63.424 26.2641 63.68 25.2721 63.68H23.2081C22.6001 63.68 22.0721 63.456 21.6241 63.008C21.2081 62.592 21.0001 62.08 21.0001 61.472V60.128C21.0001 59.52 21.2081 59.008 21.6241 58.592C22.0721 58.176 22.6001 57.968 23.2081 57.968H24.3121C24.7281 57.968 24.9361 57.76 24.9361 57.344V33.872C24.9361 33.264 25.1441 32.752 25.5601 32.336C26.0081 31.888 26.5201 31.664 27.0961 31.664H28.3921C29.0321 31.664 29.5601 31.888 29.9761 32.336C30.3921 32.752 30.6001 33.264 30.6001 33.872V58.304Z" fill="#161A42"/>
</svg>
